{
  "accessors": [
    {
      "bufferView": 2,
      "componentType": 5126,
      "count": 8832,
      "max": [
        0.82202821969985962,
        0.82202827930450439,
        1.683484673500061
      ],
      "min": [
        -0.94873911142349243,
        -0.82202827930450439,
        0.44659087061882019
      ],
      "type": "VEC3"
    },
    {
      "bufferView": 2,
      "byteOffset": 105984,
      "componentType": 5126,
      "count": 8832,
      "max": [
        0.99999880790710449,
        0.99999821186065674,
        0.99977707862854004
      ],
      "min": [
        -1,
        -0.99999988079071045,
        -0.9480433464050293
      ],
      "type": "VEC3"
    },
    {
      "bufferView": 1,
      "componentType": 5126,
      "count": 8832,
      "max": [
        0,
        0
      ],
      "min": [
        0,
        0
      ],
      "type": "VEC2"
    },
    {
      "bufferView": 0,
      "componentType": 5125,
      "count": 52224,
      "max": [
        8831
      ],
      "min": [
        0
      ],
      "type": "SCALAR"
    },
    {
      "bufferView": 2,
      "byteOffset": 211968,
      "componentType": 5126,
      "count": 559,
      "max": [
        1.0000002384185791,
        1,
        1
      ],
      "min": [
        -0.99999982118606567,
        -1.0000003576278687,
        -1
      ],
      "type": "VEC3"
    },
    {
      "bufferView": 2,
      "byteOffset": 218676,
      "componentType": 5126,
      "count": 559,
      "max": [
        1,
        1,
        1
      ],
      "min": [
        -1,
        -1,
        -1
      ],
      "type": "VEC3"
    },
    {
      "bufferView": 1,
      "byteOffset": 70656,
      "componentType": 5126,
      "count": 559,
      "max": [
        1.0000002384185791,
        1
      ],
      "min": [
        0,
        0
      ],
      "type": "VEC2"
    },
    {
      "bufferView": 0,
      "byteOffset": 208896,
      "componentType": 5125,
      "count": 2880,
      "max": [
        558
      ],
      "min": [
        0
      ],
      "type": "SCALAR"
    },
    {
      "bufferView": 2,
      "byteOffset": 225384,
      "componentType": 5126,
      "count": 6784,
      "max": [
        0.9935951828956604,
        0.99359524250030518,
        0.45478585362434387
      ],
      "min": [
        -0.9935951828956604,
        -0.9935951828956604,
        -0.057631757110357285
      ],
      "type": "VEC3"
    },
    {
      "bufferView": 2,
      "byteOffset": 306792,
      "componentType": 5126,
      "count": 6784,
      "max": [
        1,
        1,
        0.94438683986663818
      ],
      "min": [
        -1,
        -1,
        -0.99997448921203613
      ],
      "type": "VEC3"
    },
    {
      "bufferView": 1,
      "byteOffset": 75128,
      "componentType": 5126,
      "count": 6784,
      "max": [
        0,
        0
      ],
      "min": [
        0,
        0
      ],
      "type": "VEC2"
    },
    {
      "bufferView": 0,
      "byteOffset": 220416,
      "componentType": 5125,
      "count": 39936,
      "max": [
        6783
      ],
      "min": [
        0
      ],
      "type": "SCALAR"
    }
  ],
  "asset": {
    "extras": {
      "author": "Maru Studio (https://sketchfab.com/marustudio)",
      "license": "CC-BY-4.0 (http://creativecommons.org/licenses/by/4.0/)",
      "source": "https://sketchfab.com/3d-models/free-santa-claus-hat-for-ar-filter-50b4c5fa3a8c486697e8dfbcd5ee0ade",
      "title": "Free Santa Claus Hat for AR Filter"
    },
    "generator": "Sketchfab-9.91.0",
    "version": "2.0"
  },
  "bufferViews": [
    {
      "buffer": 0,
      "byteLength": 380160,
      "byteOffset": 0,
      "name": "floatBufferViews",
      "target": 34963
    },
    {
      "buffer": 0,
      "byteLength": 129400,
      "byteOffset": 380160,
      "byteStride": 8,
      "name": "floatBufferViews",
      "target": 34962
    },
    {
      "buffer": 0,
      "byteLength": 388200,
      "byteOffset": 509560,
      "byteStride": 12,
      "name": "floatBufferViews",
      "target": 34962
    }
  ],
  "buffers": [
    {
      "byteLength": 897760,
      "uri": "scene.bin"
    }
  ],
  "materials": [
    {
      "doubleSided": true,
      "emissiveFactor": [
        0,
        0,
        0
      ],
      "name": "Material.003",
      "pbrMetallicRoughness": {
        "baseColorFactor": [
          0.80000000000000004,
          0.0023358400000000001,
          0,
          1
        ],
        "metallicFactor": 0,
        "roughnessFactor": 0.96159539993948684
      }
    },
    {
      "doubleSided": true,
      "emissiveFactor": [
        0,
        0,
        0
      ],
      "name": "White",
      "pbrMetallicRoughness": {
        "baseColorFactor": [
          0.80000000000000004,
          0.80000000000000004,
          0.80000000000000004,
          1
        ],
        "metallicFactor": 0,
        "roughnessFactor": 0.82111456180001685
      }
    }
  ],
  "meshes": [
    {
      "name": "Circle_Material.003_0",
      "primitives": [
        {
          "attributes": {
            "NORMAL": 1,
            "POSITION": 0,
            "TEXCOORD_0": 2
          },
          "indices": 3,
          "material": 0,
          "mode": 4
        }
      ]
    },
    {
      "name": "Sphere_White_0",
      "primitives": [
        {
          "attributes": {
            "NORMAL": 5,
            "POSITION": 4,
            "TEXCOORD_0": 6
          },
          "indices": 7,
          "material": 1,
          "mode": 4
        }
      ]
    },
    {
      "name": "Circle.001_White_0",
      "primitives": [
        {
          "attributes": {
            "NORMAL": 9,
            "POSITION": 8,
            "TEXCOORD_0": 10
          },
          "indices": 11,
          "material": 1,
          "mode": 4
        }
      ]
    }
  ],
  "nodes": [
    {
      "children": [
        1
      ],
      "name": "RootNode (gltf orientation matrix)",
      "rotation": [
        -0.70710678118654746,
        -0,
        -0,
        0.70710678118654757
      ]
    },
    {
      "children": [
        2
      ],
      "name": "RootNode (model correction matrix)"
    },
    {
      "children": [
        3
      ],
      "matrix": [
        1,
        0,
        0,
        0,
        0,
        0,
        1,
        0,
        0,
        -1,
        0,
        0,
        0,
        0,
        0,
        1
      ],
      "name": "HAT.fbx"
    },
    {
      "children": [
        4,
        6,
        8
      ],
      "name": "RootNode"
    },
    {
      "children": [
        5
      ],
      "matrix": [
        128.55752126075416,
        0,
        153.20888919149155,
        0,
        153.20888919149141,
        -8.7422780126189537e-06,
        -128.55752126075407,
        0,
        6.6969734979771545e-06,
        199.99999999999983,
        -5.6194279451915463e-06,
        0,
        0,
        0,
        0,
        1
      ],
      "name": "Circle"
    },
    {
      "mesh": 0,
      "name": "Circle_Material.003_0"
    },
    {
      "children": [
        7
      ],
      "matrix": [
        38.223533630371094,
        0,
        0,
        0,
        -0,
        -6.2274040678165748e-06,
        -38.223533630370589,
        0,
        0,
        38.223533630370589,
        -6.2274040678165748e-06,
        0,
        -54.446327209472656,
        141.0888671875,
        -189.80580139160156,
        1
      ],
      "name": "Sphere"
    },
    {
      "mesh": 1,
      "name": "Sphere_White_0"
    },
    {
      "children": [
        9
      ],
      "matrix": [
        128.55752126075416,
        0,
        153.20888919149155,
        0,
        153.20888919149141,
        -8.7422780126189537e-06,
        -128.55752126075407,
        0,
        6.6969734979771545e-06,
        199.99999999999983,
        -5.6194279451915463e-06,
        0,
        0,
        0,
        0,
        1
      ],
      "name": "Circle.001"
    },
    {
      "mesh": 2,
      "name": "Circle.001_White_0"
    }
  ],
  "scene": 0,
  "scenes": [
    {
      "name": "OSG_Scene",
      "nodes": [
        0
      ]
    }
  ]
}

